<?xml version="1.0" encoding="utf-8" ?>
<svg baseProfile="full" height="500" version="1.1" viewBox="0 0 500 500" width="500" xmlns="http://www.w3.org/2000/svg" xmlns:ev="http://www.w3.org/2001/xml-events" xmlns:xlink="http://www.w3.org/1999/xlink"><defs /><path d="M 176,280 L 176,282 L 178,282 L 179,281 L 178,280 Z" fill="#2C423F" /><path d="M 300,258 L 300,260 L 302,260 L 303,261 L 305,261 L 307,263 L 308,263 L 309,264 L 309,265 L 310,266 L 310,267 L 311,268 L 311,271 L 312,272 L 312,303 L 311,304 L 311,305 L 308,308 L 308,309 L 303,314 L 302,314 L 299,317 L 298,317 L 296,319 L 295,319 L 294,320 L 293,320 L 292,321 L 291,321 L 290,322 L 289,322 L 288,323 L 286,323 L 285,324 L 283,324 L 282,325 L 278,325 L 277,326 L 260,326 L 259,325 L 255,325 L 254,324 L 251,324 L 250,323 L 248,323 L 247,322 L 245,322 L 244,321 L 243,321 L 242,320 L 240,320 L 239,319 L 238,319 L 237,318 L 236,318 L 234,316 L 233,316 L 232,315 L 231,315 L 227,311 L 226,311 L 214,299 L 214,298 L 211,295 L 211,294 L 209,292 L 209,291 L 208,290 L 208,289 L 206,287 L 206,286 L 205,285 L 205,284 L 205,309 L 209,313 L 210,313 L 212,315 L 213,315 L 215,317 L 216,317 L 218,319 L 219,319 L 220,320 L 221,320 L 222,321 L 223,321 L 224,322 L 226,322 L 227,323 L 228,323 L 229,324 L 231,324 L 232,325 L 234,325 L 235,326 L 237,326 L 238,327 L 242,327 L 243,328 L 247,328 L 248,329 L 258,329 L 259,330 L 268,330 L 269,329 L 276,329 L 277,328 L 281,328 L 282,327 L 285,327 L 286,326 L 288,326 L 289,325 L 291,325 L 292,324 L 294,324 L 295,323 L 296,323 L 297,322 L 298,322 L 299,321 L 300,321 L 301,320 L 302,320 L 303,319 L 304,319 L 305,318 L 306,318 L 308,316 L 309,316 L 311,314 L 312,314 L 323,303 L 323,302 L 324,301 L 324,258 Z" fill="#2C423F" /><path d="M 168,236 L 168,240 L 170,242 L 170,243 L 173,246 L 173,247 L 178,252 L 178,253 L 185,260 L 185,264 L 186,265 L 186,267 L 187,268 L 187,270 L 186,271 L 184,269 L 184,268 L 182,266 L 181,266 L 181,269 L 182,270 L 182,271 L 183,272 L 183,273 L 184,274 L 184,275 L 185,276 L 185,277 L 187,279 L 187,280 L 188,281 L 188,282 L 189,283 L 189,285 L 190,286 L 190,290 L 189,291 L 184,286 L 182,286 L 183,287 L 183,288 L 185,290 L 184,291 L 182,291 L 182,292 L 183,293 L 183,294 L 185,296 L 185,297 L 187,299 L 187,300 L 185,302 L 184,302 L 183,301 L 181,301 L 181,302 L 182,303 L 183,303 L 184,304 L 186,304 L 188,306 L 188,307 L 189,308 L 189,312 L 188,313 L 185,310 L 184,310 L 184,313 L 183,314 L 183,320 L 184,321 L 184,323 L 185,324 L 185,325 L 186,326 L 186,327 L 187,328 L 187,330 L 188,331 L 188,333 L 189,334 L 189,336 L 190,337 L 190,338 L 189,339 L 188,339 L 183,334 L 183,333 L 182,332 L 182,331 L 181,330 L 181,329 L 180,328 L 180,327 L 179,326 L 179,325 L 178,324 L 178,323 L 177,323 L 176,322 L 175,323 L 175,324 L 176,325 L 176,327 L 177,328 L 177,329 L 179,331 L 179,332 L 181,334 L 181,335 L 188,342 L 191,342 L 191,341 L 192,340 L 191,339 L 191,335 L 190,334 L 190,332 L 189,331 L 189,329 L 188,328 L 189,327 L 191,327 L 192,326 L 192,323 L 191,322 L 191,320 L 190,319 L 190,318 L 189,317 L 189,316 L 190,315 L 191,315 L 191,311 L 190,310 L 190,307 L 189,306 L 190,305 L 192,305 L 192,304 L 191,303 L 191,302 L 190,301 L 190,300 L 189,299 L 189,298 L 187,296 L 187,295 L 184,292 L 184,291 L 185,290 L 189,294 L 190,294 L 192,292 L 192,288 L 191,287 L 191,284 L 190,283 L 190,282 L 189,281 L 189,280 L 188,279 L 188,278 L 187,277 L 187,276 L 186,275 L 186,274 L 187,273 L 192,278 L 193,278 L 193,276 L 192,275 L 192,274 L 190,272 L 190,271 L 189,270 L 189,268 L 188,267 L 188,266 L 187,265 L 187,263 L 188,262 L 190,264 L 191,264 L 192,265 L 192,263 L 187,258 L 187,257 L 185,255 L 185,254 L 184,253 L 184,252 L 183,251 L 183,250 L 184,249 L 186,251 L 187,251 L 188,252 L 191,252 L 191,251 L 192,250 L 192,247 L 191,246 L 191,244 L 190,243 L 190,241 L 189,240 L 188,240 L 188,241 L 189,242 L 189,244 L 190,245 L 190,249 L 189,250 L 188,249 L 187,249 L 184,246 L 183,246 L 181,248 L 181,249 L 180,250 L 179,249 L 179,248 L 177,246 L 177,245 L 175,243 L 175,242 L 173,240 L 173,239 L 170,236 Z" fill="#2C423F" /><path d="M 259,167 L 258,168 L 249,168 L 248,169 L 243,169 L 242,170 L 240,170 L 239,171 L 236,171 L 235,172 L 234,172 L 233,173 L 231,173 L 230,174 L 229,174 L 228,175 L 227,175 L 226,176 L 225,176 L 224,177 L 223,177 L 222,178 L 221,178 L 219,180 L 218,180 L 217,181 L 216,181 L 212,185 L 211,185 L 201,195 L 201,196 L 198,199 L 198,200 L 196,202 L 196,203 L 194,205 L 194,206 L 193,207 L 193,208 L 192,209 L 192,210 L 191,211 L 191,212 L 190,213 L 190,214 L 189,215 L 189,216 L 188,217 L 188,219 L 187,220 L 187,222 L 186,223 L 186,225 L 185,226 L 185,230 L 184,231 L 184,232 L 195,232 L 195,225 L 196,224 L 196,220 L 197,219 L 197,216 L 198,215 L 198,213 L 199,212 L 199,210 L 200,209 L 200,208 L 201,207 L 201,205 L 202,204 L 202,203 L 204,201 L 204,200 L 205,199 L 205,198 L 207,196 L 207,195 L 212,190 L 212,189 L 213,188 L 214,188 L 219,183 L 220,183 L 223,180 L 224,180 L 225,179 L 226,179 L 227,178 L 228,178 L 229,177 L 230,177 L 231,176 L 232,176 L 233,175 L 235,175 L 236,174 L 238,174 L 239,173 L 242,173 L 243,172 L 249,172 L 250,171 L 265,171 L 266,172 L 271,172 L 272,173 L 276,173 L 277,174 L 279,174 L 280,175 L 282,175 L 283,176 L 284,176 L 285,177 L 286,177 L 287,178 L 288,178 L 289,179 L 290,179 L 291,180 L 292,180 L 294,182 L 295,182 L 299,186 L 300,186 L 304,190 L 304,191 L 308,195 L 308,196 L 310,198 L 310,199 L 311,200 L 311,201 L 313,203 L 315,203 L 315,201 L 314,200 L 314,180 L 313,179 L 312,179 L 311,178 L 310,178 L 309,177 L 308,177 L 307,176 L 306,176 L 305,175 L 303,175 L 302,174 L 300,174 L 299,173 L 297,173 L 296,172 L 293,172 L 292,171 L 290,171 L 289,170 L 285,170 L 284,169 L 278,169 L 277,168 L 266,168 L 265,167 Z" fill="#2C423F" /></svg>